# xmcd CD database file
#
# Track frame offsets:
#	150
#	18550
#	37495
#	60402
#	81575
#	101272
#	122052
#
# Disc length: 1864 seconds
#
# Revision: 0
# Processed by: cddbd v1.5.2PL0 Copyright (c) Steve Scherf et al.
# Submitted via: CDex 1.70beta2
#
DISCID=5b074607
DTITLE=The Deam Brothers and Ground Verbalizer - Wild West Hero
DYEAR=1997
DGENRE=Country
TTITLE0=Wild West Hero (Techno Line)
TTITLE1=Limbo Lady (Techno Line)
TTITLE2=Hey Operator! (Sleaze Mix)
TTITLE3=My Baby Thinks She's A Train (Techno Line)
TTITLE4=Wild West Hero (OK Corral Mix)
TTITLE5=Limbo Lady (Jamaican Roots Mix)
TTITLE6=My Baby Thinks She's A Train (Flying Scotsman Mix)
EXTD=YEAR: 1997
EXTT0=
EXTT1=
EXTT2=
EXTT3=
EXTT4=
EXTT5=
EXTT6=
PLAYORDER=
